<svg xmlns="http://www.w3.org/2000/svg" viewBox="0 0 543.83 559.52"><defs><style>.cls-1{fill:#005474;}.cls-2{fill:#03a3c6;}.cls-3{fill:#55cef2;}.cls-4{fill:#00314e;}</style></defs><title>A - Alon</title><g id="Layer_2" data-name="Layer 2"><g id="Layer_2-2" data-name="Layer 2"><polygon class="cls-1" points="199.19 382.52 320.53 382.52 304.2 334.62 215.52 334.62 199.19 382.52"/><path class="cls-2" d="M177,36.52,0,516.52H123l163.6-480Z"/><path class="cls-3" d="M326.86,79.52h-134l-177,480h123l29.85-87.58H351l29.85,87.58h123Zm-127.67,303,60.67-178,60.67,178Z"/><polygon class="cls-1" points="543.83 496.43 360.77 0 222.18 0 192.86 79.52 326.86 79.52 480.59 496.43 543.83 496.43"/><polygon class="cls-4" points="326.86 79.52 311 36.52 208.72 36.52 192.86 79.52 326.86 79.52"/><polygon class="cls-4" points="215.52 334.62 220.66 319.52 299.06 319.52 304.2 334.62 215.52 334.62"/></g></g></svg>